<?xml version="1.0" encoding="UTF-8" standalone="no"?>
<svg
   viewBox="0 0 900 900"
   version="1.1"
   id="svg1"
   sodipodi:docname="rocket_money.svg"
   width="900"
   height="900"
   inkscape:version="1.3.2 (1:1.3.2+202311252150+091e20ef0f)"
   xmlns:inkscape="http://www.inkscape.org/namespaces/inkscape"
   xmlns:sodipodi="http://sodipodi.sourceforge.net/DTD/sodipodi-0.dtd"
   xmlns="http://www.w3.org/2000/svg"
   xmlns:svg="http://www.w3.org/2000/svg">
  <defs
     id="defs1" />
  <sodipodi:namedview
     id="namedview1"
     pagecolor="#ffffff"
     bordercolor="#666666"
     borderopacity="1.0"
     inkscape:showpageshadow="2"
     inkscape:pageopacity="0.0"
     inkscape:pagecheckerboard="0"
     inkscape:deskcolor="#d1d1d1"
     inkscape:zoom="0.53125"
     inkscape:cx="768"
     inkscape:cy="768"
     inkscape:window-width="2560"
     inkscape:window-height="1016"
     inkscape:window-x="0"
     inkscape:window-y="27"
     inkscape:window-maximized="1"
     inkscape:current-layer="svg1" />
  <ellipse
     style="font-variation-settings:'wght' 500;fill:#edc204;fill-opacity:1;fill-rule:evenodd;stroke:none;stroke-width:2.0268"
     id="path2"
     cx="452.5"
     cy="638.90729"
     rx="127.5"
     ry="130.09271" />
  <path
     d="m 439.41406,32.014266 c -13.44244,18.35471 -17.49029,24.232859 -24.63171,35.763075 -27.46531,44.350209 -40.74753,84.816009 -42.52003,129.547359 -0.23983,6.05221 -0.47865,11.07405 -0.53105,11.15908 -0.0524,0.085 -2.16651,1.3605 -4.6978,2.83304 -14.46423,8.41507 -27.62049,25.89446 -33.58595,44.62231 -4.85197,15.23157 -5.61479,22.65628 -5.63091,54.76402 l -0.0141,30.3481 2.37913,1.9137 c 2.97064,2.38987 8.92703,2.48991 12.25943,0.20607 2.70259,-1.85167 12.78039,-9.99065 28.67552,-23.16046 15.58779,-12.91473 18.07374,-14.45629 19.92888,-12.35952 1.87226,2.11677 10.30251,19.4191 9.9992,20.5235 -0.58244,2.12078 -2.14233,16.11789 -2.64214,23.70667 -3.76771,57.25093 -4.88825,63.03404 -15.75204,81.31373 -5.59161,9.40944 -23.00028,26.61273 -33.11939,32.72796 -10.4718,6.32832 -13.16331,9.05932 -13.16331,13.35489 0,6.95854 7.31474,9.5825 15.40741,5.52702 25.96789,-13.01476 50.01616,-39.51745 57.97985,-63.89837 3.62663,-11.10506 4.16272,-14.7964 5.73671,-39.51444 2.94041,-46.20289 6.01887,-55.40626 26.57452,-79.45805 5.20567,-6.09123 10.12012,-11.07505 10.92022,-11.07505 3.84732,0 24.03718,24.30889 29.49477,35.51298 6.50457,13.35488 7.71781,20.20939 10.57458,59.78186 1.73321,23.99777 3.15404,30.76725 9.12857,43.4899 8.87765,18.90491 23.08895,35.16286 41.1385,47.06221 18.41937,12.14444 25.83085,13.9701 29.34362,7.22864 3.11574,-5.98319 0.94621,-9.91963 -8.33855,-15.12953 -21.29629,-11.94837 -34.56238,-25.35927 -43.48538,-43.96108 -5.66921,-11.81832 -6.97617,-17.75549 -8.68821,-39.45042 -2.19674,-27.85018 -3.30721,-39.16632 -4.61417,-47.01719 l -1.16588,-7.00256 6.38062,-13.00475 c 3.50975,-7.15262 6.51163,-13.18182 6.67084,-13.3969 0.26905,-0.36313 4.41968,2.95308 28.32989,22.63327 9.68783,7.97492 19.53084,14.83543 26.28934,18.3257 6.02895,3.11314 9.83495,1.20644 9.48428,-4.75273 -0.12294,-2.09177 -0.66406,-15.50667 -1.20115,-29.8119 -1.32913,-35.36793 -3.94003,-49.30903 -12.32392,-65.81707 -7.08096,-13.94109 -18.80329,-27.32099 -30.47524,-34.78471 l -5.37496,-3.43626 -0.71243,-9.50348 C 528.90605,137.30076 502.69027,76.374484 460.37379,28.012803 c -9.85812,-11.26712 -9.76542,-11.284126 -20.95972,4.001463 m 9.56186,19.642181 c -10.14329,11.967375 -40.17415,66.783413 -38.69085,70.621813 0.66407,1.71863 83.31895,2.81503 85.0179,1.12842 0.5381,-0.5342 -6.1539,-15.24958 -12.17982,-26.784793 -8.03826,-15.385625 -18.69346,-31.735603 -30.43695,-46.702075 -0.87064,-1.110406 -1.57702,-0.780285 -3.71028,1.736635 m -3.77879,47.132232 c -4.00049,3.971451 -1.56493,7.960911 5.33163,8.732191 7.95462,0.89032 11.93697,-3.23518 8.2146,-8.50911 -2.15039,-3.049114 -10.56048,-3.187165 -13.54623,-0.223081 M 404.0939,137.04966 c -1.65964,1.98573 -7.05778,21.81898 -9.31397,34.22352 -6.51062,35.79108 -0.86056,89.67178 13.88178,132.4014 l 1.83297,5.31295 5.64099,-7.81386 c 6.41791,-8.89025 34.78912,-43.68897 35.94795,-44.09212 1.5488,-0.5392 35.51565,37.34465 40.47444,45.1415 1.93978,3.05012 3.76872,5.56804 4.06498,5.59405 1.17999,0.10504 5.9584,-14.10416 8.39396,-24.96113 5.4052,-24.09381 7.07694,-41.00399 7.12228,-72.02633 0.0484,-32.48488 -0.95125,-40.17569 -8.66302,-66.67238 l -2.08186,-7.14961 -16.2579,-0.43916 c -40.5611,-1.0954 -79.92004,-0.86132 -81.0426,0.48117 m 41.10324,24.10482 c -37.59954,8.62215 -36.06182,62.51685 1.95691,68.59508 28.95868,4.62969 50.55627,-25.63137 36.56666,-51.23574 -7.03763,-12.8777 -24.24778,-20.63354 -38.52357,-17.35934 m 1.51152,18.54478 c -12.40655,5.65607 -14.1065,22.30515 -3.12582,30.62019 11.99541,9.08332 29.27308,-2.62596 26.39011,-17.88454 -2.0466,-10.82896 -13.58755,-17.14727 -23.26429,-12.73565 m 84.77101,50.20635 c -0.24991,0.78729 -1.00164,7.6518 -1.67073,15.25358 -0.6691,7.60278 -2.19675,19.64418 -3.39488,26.75878 l -2.17759,12.93573 6.58115,4.3616 c 3.62059,2.39887 11.94302,8.96928 18.49495,14.60134 6.55193,5.63206 12.17981,9.97464 12.5063,9.65052 2.35999,-2.34185 -3.39285,-43.29182 -7.53139,-53.6196 -5.32357,-13.28386 -21.39706,-34.38557 -22.80781,-29.94195 m -163.52114,5.28794 c -10.32065,11.31213 -16.21356,25.1832 -18.93933,44.5793 -1.64353,11.70327 -2.1383,33.09409 -0.76483,33.09409 0.99055,0 30.24347,-24.3479 32.76973,-27.27497 1.09937,-1.27446 1.60221,-2.94307 1.2596,-4.17953 -2.67438,-9.63152 -7.62411,-40.63485 -7.62411,-47.74845 0,-5.04585 -0.88575,-4.84377 -6.70106,1.52956 m -111.03315,107.01012 -2.20178,2.32685 0.26301,130.61676 c 0.29525,146.57258 -0.34967,134.82829 7.4014,134.82829 6.99027,0 6.46527,10.85797 6.46527,-133.71589 0,-130.40167 -0.003,-130.57574 -2.08388,-133.4778 -2.60787,-3.63633 -6.72122,-3.87742 -9.84402,-0.57821 m 383.86329,0.57321 c -1.85816,1.84467 -1.91761,5.64907 -2.05264,132.36639 l -0.14007,130.4657 2.12621,2.68399 c 2.90211,3.66233 7.33993,3.65233 9.76642,-0.024 2.58873,-3.92144 3.35054,-261.13448 0.78499,-265.0229 -1.98412,-3.0051 -7.67348,-3.26019 -10.48491,-0.46917 m -193.16605,24.43693 -2.72577,2.32686 0.20758,111.53377 c 0.23681,127.35156 1.3382,113.92265 -9.66465,117.86109 -20.14855,7.21364 -26.50599,29.90594 -12.32291,43.98609 4.64036,4.60768 13.41624,8.65216 27.29198,12.57959 22.00066,6.22728 28.53748,11.92937 19.40891,16.93019 -1.07116,0.58722 -2.25619,1.49255 -2.63206,2.01174 -1.24851,1.72363 -19.97119,0.73727 -28.03464,-1.47754 -15.48299,-4.25255 -20.85795,-3.44026 -23.16553,3.50128 -2.35394,7.08059 1.59918,10.96701 15.83064,15.55969 16.89474,5.45199 15.68855,3.87241 15.4054,20.17437 -0.1572,9.0153 1.59616,11.81632 7.39233,11.81632 5.85965,0 7.13437,-2.53792 7.71378,-15.35561 l 0.50384,-11.15408 4.53456,-1.33248 c 23.07384,-6.78048 33.50231,-22.39019 25.84395,-38.68215 -4.73206,-10.06668 -14.17099,-15.84979 -35.84416,-21.96003 -17.54369,-4.9458 -22.05608,-8.4961 -19.60238,-15.42263 2.19674,-6.20027 18.87383,-7.25666 33.63331,-2.13178 4.7109,1.63559 9.61527,2.98009 10.89905,2.98809 5.14521,0.029 10.20175,-4.56667 10.24004,-9.3064 0.0474,-5.98919 -2.30557,-7.81086 -15.63817,-12.10643 -4.41061,-1.42152 -9.52156,-3.49428 -11.35554,-4.60668 -6.50558,-3.94245 -6.21536,2.14678 -5.55937,-116.63965 l 0.59453,-107.91946 -2.22092,-2.751 c -2.79026,-3.45626 -6.98826,-3.62233 -10.7338,-0.42316 m 51.12662,127.49862 c -0.49578,0.94735 -1.20821,6.67344 -1.58306,12.72565 l -0.6822,11.00402 10.38111,5.22291 c 79.54418,40.02064 97.11407,152.8709 32.88662,211.22423 -42.08069,38.23198 -99.5708,46.03383 -148.45936,20.14637 -56.57413,-29.95596 -80.20723,-95.89306 -57.02054,-159.08717 11.01797,-30.02898 34.99771,-57.23092 64.73835,-73.43685 9.34824,-5.09386 9.25453,-4.91579 7.82262,-14.75439 -2.20178,-15.13453 -2.3358,-15.19556 -17.2424,-7.82686 -72.01883,35.59701 -106.46131,117.00277 -81.82658,193.40071 17.01064,52.75528 66.39095,92.41278 126.09695,101.26902 l 11.33639,1.68162 0.10983,32.14275 c 0.15216,44.80938 0.32851,47.74245 2.9908,49.89924 3.13791,2.54193 6.49247,2.1758 8.99454,-0.98136 2.14535,-2.70699 2.16248,-3.10513 1.837,-41.76127 l -0.3285,-39.02827 4.03071,-0.68124 c 2.2169,-0.37414 9.24546,-1.42953 15.61903,-2.34386 39.90107,-5.7281 76.26015,-29.00561 100.65103,-64.43856 43.566,-63.28614 30.76646,-156.74031 -28.37826,-207.20876 -20.18886,-17.2273 -49.22916,-32.40785 -51.97408,-27.16793 m -9.46614,43.62895 c -5.03235,3.79239 -1.41881,7.9379 14.44811,16.57406 29.98349,16.32097 48.24364,51.64188 47.02032,90.95025 -1.38757,44.5693 -22.18909,75.19349 -61.21651,90.12395 -15.62608,5.97719 -43.58515,7.99793 -61.10869,4.41562 -45.56221,-9.31241 -76.70756,-48.6898 -76.26015,-96.41725 0.37284,-39.82957 18.73376,-71.56117 53.88665,-93.12905 5.45658,-3.34823 9.92161,-6.50338 9.92161,-7.01257 0,-1.36149 -6.21738,-4.88878 -8.62472,-4.89279 -7.18274,-0.013 -32.94507,21.40283 -44.94552,37.36166 -22.09236,29.38075 -28.0679,74.67431 -14.37555,108.94884 18.49797,46.30192 63.87578,72.82962 116.03325,67.8318 47.35588,-4.53666 82.22259,-34.24953 95.16623,-81.09765 3.95111,-14.30023 3.5168,-44.51928 -0.85653,-59.57979 -9.62938,-33.16212 -30.13867,-58.5534 -58.22773,-72.08535 -7.83874,-3.77638 -8.36475,-3.87242 -10.86077,-1.99173 M 229.82788,654.20274 c -4.7109,2.25683 -4.08614,7.71782 1.16589,10.19173 9.21119,4.33958 20.602,-3.67935 13.84752,-9.74757 -2.12721,-1.9107 -11.38073,-2.1848 -15.01341,-0.44416 m 432.1805,3.39124 c -3.44324,2.39488 -4.47812,5.94918 -2.7167,9.33141 3.70423,7.1106 15.65631,4.14552 15.65631,-3.88542 0,-6.09323 -7.48,-9.24238 -12.93961,-5.44599 m -212.49132,15.14454 c 3.20643,0.19907 8.19445,0.19707 11.08447,-0.004 2.88902,-0.20108 0.26502,-0.36414 -5.83144,-0.36214 -6.09646,0.002 -8.46047,0.16706 -5.25303,0.36614 m 181.73292,31.34446 c -3.15,2.4589 -3.38681,4.96181 -0.69832,7.37669 2.11814,1.9037 23.59985,1.43353 27.5177,-0.60222 2.30054,-1.19443 2.25721,-5.09286 -0.0796,-7.19263 -3.00792,-2.70198 -23.1474,-2.38787 -26.73978,0.41816 m -381.18589,-0.38114 c -7.5062,1.45753 -6.17505,9.5675 1.6657,10.14571 7.77827,0.57321 21.06654,-0.89033 22.68588,-2.49792 6.15289,-6.10823 -8.53,-10.71992 -24.35158,-7.64779 m 10.5756,48.99591 c -4.74113,1.24946 -4.30884,9.68654 0.55724,10.89899 6.32017,1.57457 42.67119,-0.023 44.83669,-1.97072 2.60888,-2.34586 2.72678,-5.7411 0.2761,-7.94291 -1.76646,-1.58658 -40.23763,-2.41688 -45.67003,-0.98536 m 341.02987,0.32012 c -3.35154,1.3845 -4.07203,5.69508 -1.39664,8.35405 2.04962,2.03675 3.26387,2.1778 21.3759,2.47091 20.94662,0.34012 24.07647,-0.32812 24.07647,-5.14489 0,-5.82913 -1.12557,-6.15124 -22.33823,-6.38733 -10.71364,-0.11904 -20.48712,0.19907 -21.7175,0.70726 M 210.94397,814.6424 c -1.95993,2.96808 -0.71545,7.73383 2.32774,8.91726 0.91901,0.35813 35.18514,0.62023 76.14629,0.58321 82.07647,-0.073 79.19552,0.14706 79.19552,-6.05721 0,-6.2833 3.28604,-6.03621 -80.21832,-6.03621 h -75.74019 l -1.71104,2.59295 m 330.0633,-0.17707 c -2.6774,2.83004 -2.17558,5.83414 1.36037,8.13398 3.4644,2.25382 145.263,1.72563 146.70902,-0.5462 1.4168,-2.22482 1.18805,-5.27093 -0.58244,-7.77985 l -1.56795,-2.22381 H 543.29369 l -2.28643,2.41588"
     fill-rule="evenodd"
     id="path1"
     style="stroke-width:1.00401;fill:#dfe1e4;fill-opacity:1" />
  <path
     style="font-variation-settings:'wght' 500;fill:#edc204;fill-opacity:1;fill-rule:evenodd;stroke:none;stroke-width:1.88532"
     d="m 411.61251,122.58955 c -2.95046,-1.8704 8.54199,-26.021023 25.18881,-52.93259 14.70419,-23.771087 13.78026,-23.550042 26.10177,-6.244698 C 471.69626,75.762108 496,119.62998 496,123.15168 c 0,1.73495 -81.62162,1.19125 -84.38749,-0.56213 z m 46.21686,-17.40716 c 3.58195,-3.58195 0.49307,-7.300037 -6.06466,-7.300037 -6.55774,0 -9.64662,3.718087 -6.06467,7.300037 1.16145,1.16145 3.89055,2.11173 6.06467,2.11173 2.17411,0 4.90321,-0.95028 6.06466,-2.11173 z"
     id="path3" />
</svg>
